Coordinates
version=1
nRows=34
nColumns=38
inDegrees=no

Units are S.I. units (second, meters, Newtons, ...)
If the header above contains a line with 'inDegrees', this indicates whether rotational values are in degrees (yes) or radians (no).

endheader
time	pelvis_tilt	pelvis_list	pelvis_rotation	pelvis_tx	pelvis_ty	pelvis_tz	hip_flexion_r	hip_adduction_r	hip_rotation_r	knee_angle_r	ankle_angle_r	subtalar_angle_r	mtp_angle_r	hip_flexion_l	hip_adduction_l	hip_rotation_l	knee_angle_l	ankle_angle_l	subtalar_angle_l	mtp_angle_l	lumbar_extension	lumbar_bending	lumbar_rotation	arm_flex_r	arm_add_r	arm_rot_r	elbow_flex_r	pro_sup_r	wrist_flex_r	wrist_dev_r	arm_flex_l	arm_add_l	arm_rot_l	elbow_flex_l	pro_sup_l	wrist_flex_l	wrist_dev_l
1.66	0.621428	1.44475	-2.26469	0.713335	-0.582621	0.955782	0.370448	-0.169743	-0.0620336	1.3183	-0.103359	0	0	0.123111	0.0640117	-0.17442	0.445337	0.148195	0	0	-0.138876	-0.101856	-0.00502441	-0.149366	-0.15341	0.129061	0.575859	1.14549	0	0	-0.274256	-0.250887	0.350258	0.682079	0.804759	0	0
1.67	0.573512	1.44399	-2.20978	0.713921	-0.592537	0.957171	0.381892	-0.167466	-0.0740109	1.29638	-0.0880585	0	0	0.0995928	0.0622013	-0.168307	0.432826	0.154288	0	0	-0.146529	-0.0967772	-0.0153382	-0.149086	-0.153228	0.126587	0.575034	1.1443	0	0	-0.265261	-0.256213	0.349926	0.685043	0.807543	0	0
1.68	0.527693	1.44279	-2.15725	0.714465	-0.602383	0.958364	0.392337	-0.165525	-0.0859649	1.27196	-0.0729066	0	0	0.0765335	0.0602655	-0.162074	0.420549	0.160281	0	0	-0.154261	-0.0918219	-0.0245111	-0.149202	-0.152767	0.121836	0.574656	1.14558	0	0	-0.254844	-0.261907	0.351572	0.687068	0.812043	0	0
1.69	0.486277	1.44122	-2.11022	0.714879	-0.612197	0.959362	0.402075	-0.163685	-0.0970435	1.2454	-0.0576384	0	0	0.0531255	0.058535	-0.156493	0.407085	0.166302	0	0	-0.161614	-0.0873177	-0.032308	-0.149051	-0.152036	0.116322	0.573128	1.14974	0	0	-0.243449	-0.267526	0.354398	0.687698	0.817419	0	0
1.7	0.447822	1.43919	-2.0671	0.715231	-0.621928	0.960198	0.410512	-0.162269	-0.107835	1.21628	-0.0428564	0	0	0.029787	0.0569069	-0.151333	0.393708	0.172445	0	0	-0.169093	-0.0830616	-0.0390835	-0.148328	-0.151334	0.11149	0.570411	1.15387	0	0	-0.230713	-0.272741	0.359703	0.685696	0.825293	0	0
1.71	0.415568	1.43705	-2.03068	0.715566	-0.631521	0.960811	0.418841	-0.161739	-0.118418	1.18559	-0.029737	0	0	0.00755938	0.0557074	-0.145819	0.381482	0.178518	0	0	-0.17651	-0.079174	-0.0448979	-0.14771	-0.150743	0.107673	0.567891	1.15391	0	0	-0.216456	-0.277503	0.365424	0.682461	0.833784	0	0
1.72	0.383257	1.43604	-1.99486	0.715884	-0.641034	0.961449	0.427349	-0.159616	-0.128029	1.1519	-0.0193275	0	0	-0.0129129	0.0536349	-0.14029	0.370005	0.18369	0	0	-0.180388	-0.0779645	-0.0629396	-0.133815	-0.153292	0.138979	0.549369	1.14169	0	0	-0.213315	-0.27933	0.350334	0.683132	0.844001	0	0
1.73	0.364605	1.43385	-1.97319	0.715997	-0.650731	0.961656	0.435036	-0.160024	-0.137447	1.11824	-0.00913765	0	0	-0.0336715	0.0532327	-0.136372	0.35905	0.189873	0	0	-0.186046	-0.0758368	-0.0672166	-0.133189	-0.154019	0.144775	0.546276	1.1273	0	0	-0.19792	-0.284136	0.357322	0.67782	0.85344	0	0
1.74	0.348671	1.43154	-1.9547	0.716035	-0.66048	0.961737	0.441343	-0.160865	-0.147309	1.08269	0.000208666	0	0	-0.0543174	0.0529172	-0.13317	0.348352	0.196046	0	0	-0.191495	-0.0739721	-0.0708149	-0.132394	-0.153963	0.147694	0.541835	1.11699	0	0	-0.181837	-0.288931	0.367092	0.671358	0.859885	0	0
1.75	0.336791	1.42911	-1.94059	0.71601	-0.670227	0.961659	0.446752	-0.162204	-0.157417	1.0457	0.00844286	0	0	-0.0750131	0.053084	-0.129411	0.337622	0.201803	0	0	-0.196806	-0.0725205	-0.0739363	-0.131548	-0.153548	0.149412	0.536787	1.10966	0	0	-0.165308	-0.293509	0.378439	0.664173	0.863916	0	0
1.76	0.325807	1.42662	-1.92722	0.715984	-0.679982	0.961439	0.450621	-0.163556	-0.168366	1.00699	0.0160525	0	0	-0.0958177	0.0531673	-0.125544	0.326795	0.207523	0	0	-0.201866	-0.0709499	-0.0766576	-0.130686	-0.153525	0.151772	0.531401	1.10556	0	0	-0.147849	-0.297893	0.392535	0.655713	0.865925	0	0
1.77	0.327781	1.42361	-1.92652	0.715811	-0.689812	0.960728	0.454543	-0.167322	-0.180015	0.969553	0.0248353	0	0	-0.116062	0.0546428	-0.123425	0.316985	0.214807	0	0	-0.208955	-0.0676342	-0.0645796	-0.144546	-0.149201	0.111597	0.542474	1.12014	0	0	-0.115836	-0.303613	0.432497	0.640343	0.863554	0	0
1.78	0.310844	1.42377	-1.90671	0.715922	-0.699595	0.960413	0.457185	-0.166689	-0.193531	0.926653	0.0301705	0	0	-0.133804	0.0523634	-0.120198	0.307153	0.220556	0	0	-0.209378	-0.0670238	-0.0818174	-0.129369	-0.15164	0.146673	0.518471	1.11613	0	0	-0.111299	-0.304647	0.42267	0.635438	0.865252	0	0
1.79	0.302811	1.42219	-1.89625	0.715818	-0.709518	0.959742	0.458687	-0.167892	-0.206871	0.885222	0.0365546	0	0	-0.153283	0.0517595	-0.117345	0.29709	0.226727	0	0	-0.212912	-0.0647777	-0.084539	-0.128679	-0.152569	0.153363	0.513303	1.10855	0	0	-0.0935226	-0.306125	0.433092	0.624376	0.869948	0	0
1.8	0.295262	1.4204	-1.8863	0.715678	-0.719531	0.958974	0.459135	-0.169491	-0.22194	0.843614	0.0429276	0	0	-0.172863	0.0511587	-0.11435	0.287442	0.233081	0	0	-0.216528	-0.0625116	-0.087305	-0.12813	-0.153218	0.158767	0.508043	1.10259	0	0	-0.0761468	-0.30714	0.443715	0.613627	0.870974	0	0
1.81	0.286088	1.41895	-1.87408	0.715522	-0.729583	0.958083	0.45821	-0.170735	-0.238382	0.800923	0.0503469	0	0	-0.191587	0.0496767	-0.111746	0.278987	0.239767	0	0	-0.21961	-0.0596058	-0.0909315	-0.127877	-0.153031	0.160395	0.502904	1.0989	0	0	-0.0594719	-0.307414	0.452432	0.602981	0.871159	0	0
1.82	0.279931	1.41841	-1.86465	0.715265	-0.739744	0.956983	0.457497	-0.171115	-0.254046	0.757279	0.0567962	0	0	-0.209041	0.0479213	-0.109624	0.271029	0.246567	0	0	-0.22147	-0.0567876	-0.0943587	-0.127856	-0.152587	0.160425	0.497508	1.10005	0	0	-0.0433576	-0.307255	0.459529	0.592756	0.872482	0	0
1.83	0.276109	1.41873	-1.85731	0.714946	-0.749992	0.955711	0.457406	-0.171539	-0.269921	0.715025	0.0635671	0	0	-0.225282	0.0459151	-0.107518	0.263658	0.253297	0	0	-0.222353	-0.0539162	-0.0977835	-0.127951	-0.15251	0.16239	0.492061	1.10052	0	0	-0.0278878	-0.30658	0.46502	0.583157	0.874431	0	0
1.84	0.274314	1.41993	-1.85166	0.714533	-0.760351	0.954241	0.457952	-0.170976	-0.285121	0.672517	0.0694891	0	0	-0.239993	0.0434926	-0.105969	0.257495	0.260461	0	0	-0.221874	-0.0511245	-0.101747	-0.128311	-0.152373	0.165416	0.486707	1.0994	0	0	-0.0137261	-0.305927	0.46936	0.575023	0.875305	0	0
1.85	0.271029	1.42208	-1.84385	0.714119	-0.770798	0.952639	0.45816	-0.169819	-0.301149	0.630011	0.0759552	0	0	-0.25318	0.0400598	-0.105344	0.252376	0.268527	0	0	-0.2203	-0.0476893	-0.106888	-0.128348	-0.152164	0.168878	0.480652	1.09822	0	0	-0.00131411	-0.304748	0.470259	0.568572	0.875474	0	0
1.86	0.26854	1.42473	-1.83677	0.713625	-0.781343	0.950897	0.457978	-0.168264	-0.317055	0.587942	0.0830803	0	0	-0.265159	0.0363294	-0.105404	0.248638	0.27677	0	0	-0.217924	-0.0442183	-0.111919	-0.129221	-0.151659	0.169638	0.47592	1.0981	0	0	0.00996698	-0.303594	0.469877	0.564075	0.875646	0	0
1.87	0.264648	1.42706	-1.82878	0.712982	-0.792029	0.949114	0.456842	-0.165889	-0.332218	0.54654	0.0903403	0	0	-0.277484	0.0324658	-0.105448	0.245433	0.284473	0	0	-0.215651	-0.0407443	-0.116625	-0.130495	-0.151089	0.169546	0.472052	1.09788	0	0	0.0200053	-0.302194	0.467709	0.560897	0.876062	0	0
1.88	0.257962	1.42919	-1.8176	0.712254	-0.802788	0.947346	0.454113	-0.162529	-0.346561	0.504833	0.0977435	0	0	-0.289323	0.0277499	-0.105856	0.243855	0.292049	0	0	-0.213639	-0.0369002	-0.121532	-0.131801	-0.150403	0.169572	0.468102	1.0969	0	0	0.029442	-0.300775	0.46495	0.558757	0.876498	0	0
1.89	0.251371	1.43227	-1.80629	0.711392	-0.813694	0.945499	0.451388	-0.15811	-0.35895	0.463125	0.104941	0	0	-0.299223	0.0221957	-0.107344	0.244288	0.29982	0	0	-0.210422	-0.0330012	-0.126935	-0.133031	-0.149599	0.169829	0.46384	1.09599	0	0	0.0372603	-0.299373	0.459962	0.557862	0.877765	0	0
1.9	0.242853	1.436	-1.79296	0.710365	-0.824717	0.943577	0.4484	-0.152367	-0.368548	0.42183	0.111969	0	0	-0.307583	0.0155981	-0.110011	0.24683	0.307826	0	0	-0.206587	-0.0289426	-0.132511	-0.134162	-0.148606	0.169979	0.459315	1.09531	0	0	0.0435586	-0.297992	0.451908	0.558825	0.880736	0	0
1.91	0.23251	1.43995	-1.77779	0.70923	-0.83579	0.941604	0.44489	-0.14564	-0.374201	0.381298	0.118015	0	0	-0.314542	0.00817854	-0.11473	0.251679	0.316281	0	0	-0.202343	-0.0247948	-0.138167	-0.135408	-0.147393	0.16946	0.45494	1.09422	0	0	0.0486412	-0.296414	0.441541	0.561361	0.884944	0	0
1.92	0.222012	1.44406	-1.76225	0.707999	-0.847009	0.939636	0.440864	-0.138496	-0.376133	0.34228	0.122348	0	0	-0.319553	-0.000237453	-0.121694	0.260212	0.325058	0	0	-0.197883	-0.0207191	-0.143955	-0.136849	-0.146085	0.168503	0.45065	1.09324	0	0	0.0524928	-0.294838	0.429852	0.565467	0.890008	0	0
1.93	0.212656	1.44862	-1.74765	0.706706	-0.858452	0.937666	0.43681	-0.131385	-0.374131	0.3057	0.124597	0	0	-0.32178	-0.0097044	-0.131126	0.273532	0.334328	0	0	-0.193134	-0.0167578	-0.150246	-0.138717	-0.14459	0.166165	0.447235	1.0924	0	0	0.0543846	-0.293273	0.415496	0.571799	0.896583	0	0
1.94	0.200598	1.45329	-1.73022	0.705263	-0.870148	0.935766	0.431919	-0.123764	-0.368381	0.271956	0.124698	0	0	-0.323805	-0.0197107	-0.138822	0.287398	0.342299	0	0	-0.188042	-0.0126123	-0.156456	-0.141297	-0.142815	0.162485	0.444389	1.09149	0	0	0.0545549	-0.291568	0.399095	0.57987	0.904616	0	0
1.95	0.184785	1.45722	-1.70887	0.703748	-0.882069	0.933982	0.426225	-0.116591	-0.360404	0.244007	0.123968	0	0	-0.326718	-0.0298707	-0.144209	0.301079	0.348429	0	0	-0.182733	-0.00840586	-0.163077	-0.144125	-0.141208	0.159342	0.44159	1.09039	0	0	0.0529422	-0.289828	0.381864	0.58938	0.913413	0	0
1.96	0.17116	1.4604	-1.68959	0.702186	-0.894272	0.932256	0.421782	-0.111822	-0.352995	0.226418	0.125337	0	0	-0.330385	-0.0393343	-0.147505	0.314526	0.352452	0	0	-0.17726	-0.00477376	-0.170087	-0.147694	-0.140104	0.156832	0.440062	1.0897	0	0	0.0491657	-0.288231	0.363667	0.600978	0.92286	0	0
1.97	0.160558	1.46322	-1.67328	0.700535	-0.906719	0.930561	0.42103	-0.110084	-0.348944	0.224077	0.129665	0	0	-0.334355	-0.0480918	-0.147448	0.328037	0.354398	0	0	-0.171575	-0.0017114	-0.177208	-0.151621	-0.139073	0.155051	0.438384	1.08862	0	0	0.043205	-0.286908	0.344565	0.614978	0.932808	0	0
1.98	0.153734	1.46601	-1.6599	0.698843	-0.919439	0.928881	0.423309	-0.111076	-0.348785	0.234616	0.135066	0	0	-0.337682	-0.0565515	-0.143844	0.342449	0.35452	0	0	-0.165608	0.000918074	-0.184676	-0.156199	-0.137991	0.153213	0.436812	1.08736	0	0	0.0351986	-0.285938	0.325074	0.631534	0.943071	0	0
1.99	0.149195	1.46878	-1.64854	0.69716	-0.932417	0.927252	0.426795	-0.113456	-0.348176	0.253364	0.137111	0	0	-0.339972	-0.0647507	-0.13787	0.358515	0.352882	0	0	-0.15901	0.00336556	-0.192678	-0.161999	-0.137352	0.150252	0.437528	1.08641	0	0	0.0248181	-0.284981	0.30523	0.649941	0.952939	0	0
